<?xml version="1.0" standalone="no"?>
<!DOCTYPE svg PUBLIC "-//W3C//DTD SVG 20010904//EN"
 "http://www.w3.org/TR/2001/REC-SVG-20010904/DTD/svg10.dtd">
<svg version="1.0" xmlns="http://www.w3.org/2000/svg"
 width="276.000000pt" height="183.000000pt" viewBox="0 0 276.000000 183.000000"
 preserveAspectRatio="xMidYMid meet">

<g transform="translate(0.000000,183.000000) scale(0.100000,-0.100000)"
fill="#000000" stroke="none">
<path d="M1430 915 l0 -615 145 0 145 0 0 615 0 615 -145 0 -145 0 0 -615z"/>
<path d="M659 1401 c-168 -54 -301 -191 -345 -356 -20 -75 -18 -201 6 -276 52
-169 189 -301 354 -345 60 -16 192 -18 256 -3 241 55 417 312 381 554 -32 219
-168 376 -374 431 -73 19 -209 17 -278 -5z m238 -359 c65 -46 83 -148 39 -213
-47 -68 -143 -90 -206 -46 -55 37 -75 72 -75 132 0 60 19 95 76 133 43 30 120
27 166 -6z"/>
<path d="M1850 1123 l0 -97 55 -56 55 -56 -55 -54 -55 -54 0 -98 0 -98 97 0
97 0 56 55 56 55 54 -55 54 -55 98 0 98 0 0 98 0 98 -55 54 -55 54 55 56 55
56 0 97 0 97 -98 0 -98 0 -54 -55 -54 -55 -56 55 -56 55 -97 0 -97 0 0 -97z"/>
</g>
</svg>
